<?xml version="1.0" encoding="UTF-8"?><svg xmlns="http://www.w3.org/2000/svg" xmlns:xlink="http://www.w3.org/1999/xlink" fill-opacity="1" color-rendering="auto" color-interpolation="auto" text-rendering="auto" stroke="black" stroke-linecap="square" width="312" stroke-miterlimit="10" shape-rendering="auto" stroke-opacity="1" fill="black" stroke-dasharray="none" font-weight="normal" stroke-width="1" height="302" font-family="'Dialog'" font-style="normal" stroke-linejoin="miter" font-size="12px" stroke-dashoffset="0" image-rendering="auto">
  <!--Generated by ySVG 2.5-->
  <defs id="genericDefs"/>
  <g>
    <defs id="defs1">
      <clipPath clipPathUnits="userSpaceOnUse" id="clipPath1">
        <path d="M0 0 L312 0 L312 302 L0 302 L0 0 Z"/>
      </clipPath>
      <clipPath clipPathUnits="userSpaceOnUse" id="clipPath2">
        <path d="M-15 -15 L297 -15 L297 287 L-15 287 L-15 -15 Z"/>
      </clipPath>
    </defs>
    <g fill="white" text-rendering="geometricPrecision" shape-rendering="geometricPrecision" transform="translate(15,15)" stroke="white">
      <rect x="-15" width="312" height="302" y="-15" clip-path="url(#clipPath2)" stroke="none"/>
    </g>
    <g fill="aqua" text-rendering="geometricPrecision" shape-rendering="geometricPrecision" transform="matrix(1,0,0,1,15,15)" stroke="aqua">
      <path d="M141.4375 0 L156.4375 30 L126.4375 30 Z" fill-rule="evenodd" clip-path="url(#clipPath2)" stroke="none"/>
    </g>
    <g text-rendering="geometricPrecision" stroke-miterlimit="1.45" shape-rendering="geometricPrecision" font-family="sans-serif" transform="matrix(1,0,0,1,15,15)" stroke-linecap="butt">
      <text x="127.7939" xml:space="preserve" y="19.1543" clip-path="url(#clipPath2)" stroke="none">out1</text>
      <path fill="none" d="M141.4375 0 L156.4375 30 L126.4375 30 Z" clip-path="url(#clipPath2)" fill-rule="evenodd"/>
    </g>
    <g fill="lime" text-rendering="geometricPrecision" shape-rendering="geometricPrecision" transform="matrix(1,0,0,1,15,15)" stroke="lime">
      <path d="M166.4375 242 L181.4375 272 L151.4375 272 Z" fill-rule="evenodd" clip-path="url(#clipPath2)" stroke="none"/>
    </g>
    <g text-rendering="geometricPrecision" stroke-miterlimit="1.45" shape-rendering="geometricPrecision" font-family="sans-serif" transform="matrix(1,0,0,1,15,15)" stroke-linecap="butt">
      <text x="162.7607" xml:space="preserve" y="261.1543" clip-path="url(#clipPath2)" stroke="none">a</text>
      <path fill="none" d="M166.4375 242 L181.4375 272 L151.4375 272 Z" clip-path="url(#clipPath2)" fill-rule="evenodd"/>
    </g>
    <g fill="lime" text-rendering="geometricPrecision" shape-rendering="geometricPrecision" transform="matrix(1,0,0,1,15,15)" stroke="lime">
      <path d="M116.4375 242 L131.4375 272 L101.4375 272 Z" fill-rule="evenodd" clip-path="url(#clipPath2)" stroke="none"/>
    </g>
    <g text-rendering="geometricPrecision" stroke-miterlimit="1.45" shape-rendering="geometricPrecision" font-family="sans-serif" transform="matrix(1,0,0,1,15,15)" stroke-linecap="butt">
      <text x="112.6289" xml:space="preserve" y="261.1543" clip-path="url(#clipPath2)" stroke="none">b</text>
      <path fill="none" d="M116.4375 242 L131.4375 272 L101.4375 272 Z" clip-path="url(#clipPath2)" fill-rule="evenodd"/>
    </g>
    <g fill="rgb(204,204,255)" text-rendering="geometricPrecision" shape-rendering="geometricPrecision" transform="matrix(1,0,0,1,15,15)" stroke="rgb(204,204,255)">
      <circle r="15" clip-path="url(#clipPath2)" cx="141.4375" cy="85.5" stroke="none"/>
    </g>
    <g text-rendering="geometricPrecision" stroke-miterlimit="1.45" shape-rendering="geometricPrecision" font-family="sans-serif" transform="matrix(1,0,0,1,15,15)" stroke-linecap="butt">
      <text x="127.7939" xml:space="preserve" y="89.6543" clip-path="url(#clipPath2)" stroke="none">out1</text>
      <circle fill="none" r="15" clip-path="url(#clipPath2)" cx="141.4375" cy="85.5"/>
    </g>
    <g fill="rgb(204,204,255)" text-rendering="geometricPrecision" shape-rendering="geometricPrecision" transform="matrix(1,0,0,1,15,15)" stroke="rgb(204,204,255)">
      <circle r="15" clip-path="url(#clipPath2)" cx="266.4375" cy="166" stroke="none"/>
    </g>
    <g text-rendering="geometricPrecision" stroke-miterlimit="1.45" shape-rendering="geometricPrecision" font-family="sans-serif" transform="matrix(1,0,0,1,15,15)" stroke-linecap="butt">
      <text x="255.8174" xml:space="preserve" y="170.1543" clip-path="url(#clipPath2)" stroke="none">n_7</text>
      <circle fill="none" r="15" clip-path="url(#clipPath2)" cx="266.4375" cy="166"/>
    </g>
    <g fill="rgb(204,204,255)" text-rendering="geometricPrecision" shape-rendering="geometricPrecision" transform="matrix(1,0,0,1,15,15)" stroke="rgb(204,204,255)">
      <circle r="15" clip-path="url(#clipPath2)" cx="216.4375" cy="166" stroke="none"/>
    </g>
    <g text-rendering="geometricPrecision" stroke-miterlimit="1.45" shape-rendering="geometricPrecision" font-family="sans-serif" transform="matrix(1,0,0,1,15,15)" stroke-linecap="butt">
      <text x="202" xml:space="preserve" y="170.1543" clip-path="url(#clipPath2)" stroke="none">n_10</text>
      <circle fill="none" r="15" clip-path="url(#clipPath2)" cx="216.4375" cy="166"/>
    </g>
    <g fill="rgb(204,204,255)" text-rendering="geometricPrecision" shape-rendering="geometricPrecision" transform="matrix(1,0,0,1,15,15)" stroke="rgb(204,204,255)">
      <circle r="15" clip-path="url(#clipPath2)" cx="241.4375" cy="85.5" stroke="none"/>
    </g>
    <g text-rendering="geometricPrecision" stroke-miterlimit="1.45" shape-rendering="geometricPrecision" font-family="sans-serif" transform="matrix(1,0,0,1,15,15)" stroke-linecap="butt">
      <text x="227" xml:space="preserve" y="89.6543" clip-path="url(#clipPath2)" stroke="none">n_11</text>
      <circle fill="none" r="15" clip-path="url(#clipPath2)" cx="241.4375" cy="85.5"/>
    </g>
    <g fill="rgb(204,204,255)" text-rendering="geometricPrecision" shape-rendering="geometricPrecision" transform="matrix(1,0,0,1,15,15)" stroke="rgb(204,204,255)">
      <circle r="15" clip-path="url(#clipPath2)" cx="166.4375" cy="166" stroke="none"/>
    </g>
    <g text-rendering="geometricPrecision" stroke-miterlimit="1.45" shape-rendering="geometricPrecision" font-family="sans-serif" transform="matrix(1,0,0,1,15,15)" stroke-linecap="butt">
      <text x="152" xml:space="preserve" y="170.1543" clip-path="url(#clipPath2)" stroke="none">n_14</text>
      <circle fill="none" r="15" clip-path="url(#clipPath2)" cx="166.4375" cy="166"/>
    </g>
    <g fill="rgb(204,204,255)" text-rendering="geometricPrecision" shape-rendering="geometricPrecision" transform="matrix(1,0,0,1,15,15)" stroke="rgb(204,204,255)">
      <circle r="15" clip-path="url(#clipPath2)" cx="66.4375" cy="166" stroke="none"/>
    </g>
    <g text-rendering="geometricPrecision" stroke-miterlimit="1.45" shape-rendering="geometricPrecision" font-family="sans-serif" transform="matrix(1,0,0,1,15,15)" stroke-linecap="butt">
      <text x="52" xml:space="preserve" y="170.1543" clip-path="url(#clipPath2)" stroke="none">n_18</text>
      <circle fill="none" r="15" clip-path="url(#clipPath2)" cx="66.4375" cy="166"/>
    </g>
    <g fill="rgb(204,204,255)" text-rendering="geometricPrecision" shape-rendering="geometricPrecision" transform="matrix(1,0,0,1,15,15)" stroke="rgb(204,204,255)">
      <circle r="15" clip-path="url(#clipPath2)" cx="16.4375" cy="166" stroke="none"/>
    </g>
    <g text-rendering="geometricPrecision" stroke-miterlimit="1.45" shape-rendering="geometricPrecision" font-family="sans-serif" transform="matrix(1,0,0,1,15,15)" stroke-linecap="butt">
      <text x="2" xml:space="preserve" y="170.1543" clip-path="url(#clipPath2)" stroke="none">n_21</text>
      <circle fill="none" r="15" clip-path="url(#clipPath2)" cx="16.4375" cy="166"/>
    </g>
    <g fill="rgb(204,204,255)" text-rendering="geometricPrecision" shape-rendering="geometricPrecision" transform="matrix(1,0,0,1,15,15)" stroke="rgb(204,204,255)">
      <circle r="15" clip-path="url(#clipPath2)" cx="41.4375" cy="85.5" stroke="none"/>
    </g>
    <g text-rendering="geometricPrecision" stroke-miterlimit="1.45" shape-rendering="geometricPrecision" font-family="sans-serif" transform="matrix(1,0,0,1,15,15)" stroke-linecap="butt">
      <text x="27" xml:space="preserve" y="89.6543" clip-path="url(#clipPath2)" stroke="none">n_22</text>
      <circle fill="none" r="15" clip-path="url(#clipPath2)" cx="41.4375" cy="85.5"/>
    </g>
    <g fill="rgb(204,204,255)" text-rendering="geometricPrecision" shape-rendering="geometricPrecision" transform="matrix(1,0,0,1,15,15)" stroke="rgb(204,204,255)">
      <circle r="15" clip-path="url(#clipPath2)" cx="116.4375" cy="166" stroke="none"/>
    </g>
    <g text-rendering="geometricPrecision" stroke-miterlimit="1.45" shape-rendering="geometricPrecision" font-family="sans-serif" transform="matrix(1,0,0,1,15,15)" stroke-linecap="butt">
      <text x="102" xml:space="preserve" y="170.1543" clip-path="url(#clipPath2)" stroke="none">n_25</text>
      <circle fill="none" r="15" clip-path="url(#clipPath2)" cx="116.4375" cy="166"/>
      <path fill="none" d="M141.4375 37.9744 L141.4375 70.5" clip-path="url(#clipPath2)"/>
      <path d="M141.4375 29.9744 L136.4375 41.9744 L141.4375 38.9744 L146.4375 41.9744 Z" clip-path="url(#clipPath2)" stroke="none"/>
      <path fill="none" d="M266.4375 189 L266.4375 191.5 L241.4375 191.5 L241.4375 211.5 L141.4375 211.5 L141.4375 231.5 L166.4375 231.5 L166.4375 242.0088" clip-path="url(#clipPath2)"/>
      <path d="M266.4375 181 L261.4375 193 L266.4375 190 L271.4375 193 Z" clip-path="url(#clipPath2)" stroke="none"/>
      <path fill="none" d="M266.4375 189 L266.4375 191.5 L241.4375 191.5 L241.4375 211.5 L141.4375 211.5 L141.4375 231.5 L116.4375 231.5 L116.4375 242.0088" clip-path="url(#clipPath2)"/>
      <path d="M266.4375 181 L261.4375 193 L266.4375 190 L271.4375 193 Z" clip-path="url(#clipPath2)" stroke="none"/>
      <path fill="none" d="M216.4375 189 L216.4375 191.5 L241.4375 191.5 L241.4375 211.5 L141.4375 211.5 L141.4375 231.5 L166.4375 231.5 L166.4375 242.0088" clip-path="url(#clipPath2)"/>
      <path d="M216.4375 181 L211.4375 193 L216.4375 190 L221.4375 193 Z" clip-path="url(#clipPath2)" stroke="none"/>
      <path fill="none" d="M216.4375 189 L216.4375 191.5 L241.4375 191.5 L241.4375 211.5 L141.4375 211.5 L141.4375 231.5 L116.4375 231.5 L116.4375 242.0088" clip-path="url(#clipPath2)"/>
      <path d="M216.4375 181 L211.4375 193 L216.4375 190 L221.4375 193 Z" clip-path="url(#clipPath2)" stroke="none"/>
      <path fill="none" d="M164.4375 85.5 L226.4375 85.5" clip-path="url(#clipPath2)"/>
      <path d="M156.4375 85.5 L168.4375 90.5 L165.4375 85.5 L168.4375 80.5 Z" clip-path="url(#clipPath2)" stroke="none"/>
      <path fill="none" d="M241.4375 108.5 L241.4375 140.5 L266.4375 140.5 L266.4375 151" clip-path="url(#clipPath2)"/>
      <path d="M241.4375 100.5 L236.4375 112.5 L241.4375 109.5 L246.4375 112.5 Z" clip-path="url(#clipPath2)" stroke="none"/>
      <path fill="none" d="M241.4375 108.5 L241.4375 140.5 L216.4375 140.5 L216.4375 151" clip-path="url(#clipPath2)"/>
      <path d="M241.4375 100.5 L236.4375 112.5 L241.4375 109.5 L246.4375 112.5 Z" clip-path="url(#clipPath2)" stroke="none"/>
      <path fill="none" d="M141.4375 108.5 L141.4375 140.5 L166.4375 140.5 L166.4375 151" clip-path="url(#clipPath2)"/>
      <path d="M141.4375 100.5 L136.4375 112.5 L141.4375 109.5 L146.4375 112.5 Z" clip-path="url(#clipPath2)" stroke="none"/>
      <path fill="none" d="M166.4375 189 L166.4375 191.5 L141.4375 191.5 L141.4375 231.5 L166.4375 231.5 L166.4375 242.0088" clip-path="url(#clipPath2)"/>
      <path d="M166.4375 181 L161.4375 193 L166.4375 190 L171.4375 193 Z" clip-path="url(#clipPath2)" stroke="none"/>
      <path fill="none" d="M166.4375 189 L166.4375 191.5 L141.4375 191.5 L141.4375 231.5 L116.4375 231.5 L116.4375 242.0088" clip-path="url(#clipPath2)"/>
      <path d="M166.4375 181 L161.4375 193 L166.4375 190 L171.4375 193 Z" clip-path="url(#clipPath2)" stroke="none"/>
      <path fill="none" d="M66.4375 189 L66.4375 191.5 L41.4375 191.5 L41.4375 211.5 L141.4375 211.5 L141.4375 231.5 L166.4375 231.5 L166.4375 242.0088" clip-path="url(#clipPath2)"/>
      <path d="M66.4375 181 L61.4375 193 L66.4375 190 L71.4375 193 Z" clip-path="url(#clipPath2)" stroke="none"/>
      <path fill="none" d="M66.4375 189 L66.4375 191.5 L41.4375 191.5 L41.4375 211.5 L141.4375 211.5 L141.4375 231.5 L116.4375 231.5 L116.4375 242.0088" clip-path="url(#clipPath2)"/>
      <path d="M66.4375 181 L61.4375 193 L66.4375 190 L71.4375 193 Z" clip-path="url(#clipPath2)" stroke="none"/>
      <path fill="none" d="M16.4375 189 L16.4375 191.5 L41.4375 191.5 L41.4375 211.5 L141.4375 211.5 L141.4375 231.5 L166.4375 231.5 L166.4375 242.0088" clip-path="url(#clipPath2)"/>
      <path d="M16.4375 181 L11.4375 193 L16.4375 190 L21.4375 193 Z" clip-path="url(#clipPath2)" stroke="none"/>
      <path fill="none" d="M16.4375 189 L16.4375 191.5 L41.4375 191.5 L41.4375 211.5 L141.4375 211.5 L141.4375 231.5 L116.4375 231.5 L116.4375 242.0088" clip-path="url(#clipPath2)"/>
      <path d="M16.4375 181 L11.4375 193 L16.4375 190 L21.4375 193 Z" clip-path="url(#clipPath2)" stroke="none"/>
      <path fill="none" d="M118.4375 85.5 L56.4375 85.5" clip-path="url(#clipPath2)"/>
      <path d="M126.4375 85.5 L114.4375 80.5 L117.4375 85.5 L114.4375 90.5 Z" clip-path="url(#clipPath2)" stroke="none"/>
      <path fill="none" d="M41.4375 108.5 L41.4375 140.5 L66.4375 140.5 L66.4375 151" clip-path="url(#clipPath2)"/>
      <path d="M41.4375 100.5 L36.4375 112.5 L41.4375 109.5 L46.4375 112.5 Z" clip-path="url(#clipPath2)" stroke="none"/>
      <path fill="none" d="M41.4375 108.5 L41.4375 140.5 L16.4375 140.5 L16.4375 151" clip-path="url(#clipPath2)"/>
      <path d="M41.4375 100.5 L36.4375 112.5 L41.4375 109.5 L46.4375 112.5 Z" clip-path="url(#clipPath2)" stroke="none"/>
      <path fill="none" d="M141.4375 108.5 L141.4375 140.5 L116.4375 140.5 L116.4375 151" clip-path="url(#clipPath2)"/>
      <path d="M141.4375 100.5 L136.4375 112.5 L141.4375 109.5 L146.4375 112.5 Z" clip-path="url(#clipPath2)" stroke="none"/>
      <path fill="none" d="M116.4375 189 L116.4375 191.5 L141.4375 191.5 L141.4375 231.5 L166.4375 231.5 L166.4375 242.0088" clip-path="url(#clipPath2)"/>
      <path d="M116.4375 181 L111.4375 193 L116.4375 190 L121.4375 193 Z" clip-path="url(#clipPath2)" stroke="none"/>
      <path fill="none" d="M116.4375 189 L116.4375 191.5 L141.4375 191.5 L141.4375 231.5 L116.4375 231.5 L116.4375 242.0088" clip-path="url(#clipPath2)"/>
      <path d="M116.4375 181 L111.4375 193 L116.4375 190 L121.4375 193 Z" clip-path="url(#clipPath2)" stroke="none"/>
    </g>
  </g>
</svg>
