<?xml version="1.0" encoding="UTF-8"?><svg xmlns="http://www.w3.org/2000/svg" xmlns:xlink="http://www.w3.org/1999/xlink" fill-opacity="1" color-rendering="auto" color-interpolation="auto" text-rendering="auto" stroke="black" stroke-linecap="square" width="110" stroke-miterlimit="10" shape-rendering="auto" stroke-opacity="1" fill="black" stroke-dasharray="none" font-weight="normal" stroke-width="1" height="201" font-family="'Dialog'" font-style="normal" stroke-linejoin="miter" font-size="12px" stroke-dashoffset="0" image-rendering="auto">
  <!--Generated by ySVG 2.5-->
  <defs id="genericDefs"/>
  <g>
    <defs id="defs1">
      <clipPath clipPathUnits="userSpaceOnUse" id="clipPath1">
        <path d="M0 0 L110 0 L110 201 L0 201 L0 0 Z"/>
      </clipPath>
      <clipPath clipPathUnits="userSpaceOnUse" id="clipPath2">
        <path d="M-15 -15 L95 -15 L95 186 L-15 186 L-15 -15 Z"/>
      </clipPath>
    </defs>
    <g fill="white" text-rendering="geometricPrecision" shape-rendering="geometricPrecision" transform="translate(15,15)" stroke="white">
      <rect x="-15" width="110" height="201" y="-15" clip-path="url(#clipPath2)" stroke="none"/>
    </g>
    <g fill="aqua" text-rendering="geometricPrecision" shape-rendering="geometricPrecision" transform="matrix(1,0,0,1,15,15)" stroke="aqua">
      <path d="M40 -0 L55 30 L25 30 Z" fill-rule="evenodd" clip-path="url(#clipPath2)" stroke="none"/>
    </g>
    <g text-rendering="geometricPrecision" stroke-miterlimit="1.45" shape-rendering="geometricPrecision" font-family="sans-serif" transform="matrix(1,0,0,1,15,15)" stroke-linecap="butt">
      <text x="26.3564" xml:space="preserve" y="19.1543" clip-path="url(#clipPath2)" stroke="none">out1</text>
      <path fill="none" d="M40 -0 L55 30 L25 30 Z" clip-path="url(#clipPath2)" fill-rule="evenodd"/>
    </g>
    <g fill="lime" text-rendering="geometricPrecision" shape-rendering="geometricPrecision" transform="matrix(1,0,0,1,15,15)" stroke="lime">
      <path d="M65 141 L80 171 L50 171 Z" fill-rule="evenodd" clip-path="url(#clipPath2)" stroke="none"/>
    </g>
    <g text-rendering="geometricPrecision" stroke-miterlimit="1.45" shape-rendering="geometricPrecision" font-family="sans-serif" transform="matrix(1,0,0,1,15,15)" stroke-linecap="butt">
      <text x="61.3232" xml:space="preserve" y="160.1543" clip-path="url(#clipPath2)" stroke="none">a</text>
      <path fill="none" d="M65 141 L80 171 L50 171 Z" clip-path="url(#clipPath2)" fill-rule="evenodd"/>
    </g>
    <g fill="lime" text-rendering="geometricPrecision" shape-rendering="geometricPrecision" transform="matrix(1,0,0,1,15,15)" stroke="lime">
      <path d="M15 141 L30 171 L-0 171 Z" fill-rule="evenodd" clip-path="url(#clipPath2)" stroke="none"/>
    </g>
    <g text-rendering="geometricPrecision" stroke-miterlimit="1.45" shape-rendering="geometricPrecision" font-family="sans-serif" transform="matrix(1,0,0,1,15,15)" stroke-linecap="butt">
      <text x="11.1914" xml:space="preserve" y="160.1543" clip-path="url(#clipPath2)" stroke="none">b</text>
      <path fill="none" d="M15 141 L30 171 L-0 171 Z" clip-path="url(#clipPath2)" fill-rule="evenodd"/>
    </g>
    <g fill="rgb(204,204,255)" text-rendering="geometricPrecision" shape-rendering="geometricPrecision" transform="matrix(1,0,0,1,15,15)" stroke="rgb(204,204,255)">
      <circle r="15" clip-path="url(#clipPath2)" cx="40" cy="85.5" stroke="none"/>
    </g>
    <g text-rendering="geometricPrecision" stroke-miterlimit="1.45" shape-rendering="geometricPrecision" font-family="sans-serif" transform="matrix(1,0,0,1,15,15)" stroke-linecap="butt">
      <text x="26.3564" xml:space="preserve" y="89.6543" clip-path="url(#clipPath2)" stroke="none">out1</text>
      <circle fill="none" r="15" clip-path="url(#clipPath2)" cx="40" cy="85.5"/>
      <path fill="none" d="M40 37.9744 L40 70.5" clip-path="url(#clipPath2)"/>
      <path d="M40 29.9744 L35 41.9744 L40 38.9744 L45 41.9744 Z" clip-path="url(#clipPath2)" stroke="none"/>
      <path fill="none" d="M40 108.5 L40 121 L65 121 L65 140.9951" clip-path="url(#clipPath2)"/>
      <path d="M40 100.5 L35 112.5 L40 109.5 L45 112.5 Z" clip-path="url(#clipPath2)" stroke="none"/>
      <path fill="none" d="M40 108.5 L40 121 L15 121 L15 140.9951" clip-path="url(#clipPath2)"/>
      <path d="M40 100.5 L35 112.5 L40 109.5 L45 112.5 Z" clip-path="url(#clipPath2)" stroke="none"/>
    </g>
  </g>
</svg>
