<?xml version="1.0" encoding="UTF-8" standalone="no"?><!DOCTYPE svg PUBLIC "-//W3C//DTD SVG 1.1//EN" "http://www.w3.org/Graphics/SVG/1.1/DTD/svg11.dtd"><!-- Generated by graphviz version 2.40.1 (20161225.0304)
 --><!-- Pages: 1 --><svg xmlns="http://www.w3.org/2000/svg" xmlns:xlink="http://www.w3.org/1999/xlink" width="1490pt" height="575pt" viewBox="0.00 0.00 1489.68 575.20">
<g id="graph0" class="graph" transform="scale(1 1) rotate(0) translate(4 571.2)">
<polygon fill="#ffffff" stroke="transparent" points="-4,4 -4,-571.2 1485.6764,-571.2 1485.6764,4 -4,4"/>
<!-- 5 -->
<g id="node1" class="node">
<title>5</title>
<polygon fill="none" stroke="#00ffff" points="688.6764,-567.0016 656.7148,-530.0992 720.638,-530.0992 688.6764,-567.0016"/>
<text text-anchor="middle" x="688.6764" y="-538.2" font-family="Times,serif" font-size="14.00" fill="#000000">5</text>
</g>
<!-- 7 -->
<g id="node2" class="node">
<title>7</title>
<ellipse fill="none" stroke="#ccccff" cx="688.6764" cy="-463.6" rx="27" ry="18"/>
<text text-anchor="middle" x="688.6764" y="-459.4" font-family="Times,serif" font-size="14.00" fill="#000000">7</text>
</g>
<!-- 5&#45;&#45;7 -->
<g id="edge1" class="edge">
<title>5--7</title>
<path fill="none" stroke="#000000" d="M688.6764,-530.0875C688.6764,-517.1017 688.6764,-496.5069 688.6764,-481.6783"/>
</g>
<!-- 27 -->
<g id="node9" class="node">
<title>27</title>
<ellipse fill="none" stroke="#ccccff" cx="626.6764" cy="-391.6" rx="27" ry="18"/>
<text text-anchor="middle" x="626.6764" y="-387.4" font-family="Times,serif" font-size="14.00" fill="#000000">27</text>
</g>
<!-- 7&#45;&#45;27 -->
<g id="edge3" class="edge">
<title>7--27</title>
<path fill="none" stroke="#000000" d="M675.2233,-447.9771C664.9663,-436.0657 650.8879,-419.7166 640.5325,-407.691"/>
</g>
<!-- 46 -->
<g id="node10" class="node">
<title>46</title>
<ellipse fill="none" stroke="#ccccff" cx="698.6764" cy="-391.6" rx="27" ry="18"/>
<text text-anchor="middle" x="698.6764" y="-387.4" font-family="Times,serif" font-size="14.00" fill="#000000">46</text>
</g>
<!-- 7&#45;&#45;46 -->
<g id="edge4" class="edge">
<title>7--46</title>
<path fill="none" stroke="#000000" d="M691.1998,-445.4314C692.7042,-434.6 694.6087,-420.8876 696.119,-410.0133"/>
</g>
<!-- 6 -->
<g id="node3" class="node">
<title>6</title>
<polygon fill="none" stroke="#00ffff" points="800.6764,-567.0016 768.7148,-530.0992 832.638,-530.0992 800.6764,-567.0016"/>
<text text-anchor="middle" x="800.6764" y="-538.2" font-family="Times,serif" font-size="14.00" fill="#000000">6</text>
</g>
<!-- 8 -->
<g id="node4" class="node">
<title>8</title>
<ellipse fill="none" stroke="#ccccff" cx="800.6764" cy="-463.6" rx="27" ry="18"/>
<text text-anchor="middle" x="800.6764" y="-459.4" font-family="Times,serif" font-size="14.00" fill="#000000">8</text>
</g>
<!-- 6&#45;&#45;8 -->
<g id="edge2" class="edge">
<title>6--8</title>
<path fill="none" stroke="#000000" d="M800.6764,-530.0875C800.6764,-517.1017 800.6764,-496.5069 800.6764,-481.6783"/>
</g>
<!-- 65 -->
<g id="node11" class="node">
<title>65</title>
<ellipse fill="none" stroke="#ccccff" cx="790.6764" cy="-391.6" rx="27" ry="18"/>
<text text-anchor="middle" x="790.6764" y="-387.4" font-family="Times,serif" font-size="14.00" fill="#000000">65</text>
</g>
<!-- 8&#45;&#45;65 -->
<g id="edge5" class="edge">
<title>8--65</title>
<path fill="none" stroke="#000000" d="M798.153,-445.4314C796.6486,-434.6 794.7441,-420.8876 793.2338,-410.0133"/>
</g>
<!-- 84 -->
<g id="node12" class="node">
<title>84</title>
<ellipse fill="none" stroke="#ccccff" cx="862.6764" cy="-391.6" rx="27" ry="18"/>
<text text-anchor="middle" x="862.6764" y="-387.4" font-family="Times,serif" font-size="14.00" fill="#000000">84</text>
</g>
<!-- 8&#45;&#45;84 -->
<g id="edge6" class="edge">
<title>8--84</title>
<path fill="none" stroke="#000000" d="M814.1295,-447.9771C824.3865,-436.0657 838.4649,-419.7166 848.8203,-407.691"/>
</g>
<!-- 1 -->
<g id="node5" class="node">
<title>1</title>
<polygon fill="none" stroke="#00ff00" points="1245.6764,-49.4016 1213.7148,-12.4992 1277.638,-12.4992 1245.6764,-49.4016"/>
<text text-anchor="middle" x="1245.6764" y="-20.6" font-family="Times,serif" font-size="14.00" fill="#000000">1</text>
</g>
<!-- 2 -->
<g id="node6" class="node">
<title>2</title>
<polygon fill="none" stroke="#00ff00" points="543.6764,-49.4016 511.7148,-12.4992 575.638,-12.4992 543.6764,-49.4016"/>
<text text-anchor="middle" x="543.6764" y="-20.6" font-family="Times,serif" font-size="14.00" fill="#000000">2</text>
</g>
<!-- 3 -->
<g id="node7" class="node">
<title>3</title>
<polygon fill="none" stroke="#00ff00" points="888.6764,-49.4016 856.7148,-12.4992 920.638,-12.4992 888.6764,-49.4016"/>
<text text-anchor="middle" x="888.6764" y="-20.6" font-family="Times,serif" font-size="14.00" fill="#000000">3</text>
</g>
<!-- 4 -->
<g id="node8" class="node">
<title>4</title>
<polygon fill="none" stroke="#00ff00" points="287.6764,-49.4016 255.7148,-12.4992 319.638,-12.4992 287.6764,-49.4016"/>
<text text-anchor="middle" x="287.6764" y="-20.6" font-family="Times,serif" font-size="14.00" fill="#000000">4</text>
</g>
<!-- 13 -->
<g id="node14" class="node">
<title>13</title>
<ellipse fill="none" stroke="#ccccff" cx="871.6764" cy="-175.6" rx="27" ry="18"/>
<text text-anchor="middle" x="871.6764" y="-171.4" font-family="Times,serif" font-size="14.00" fill="#000000">13</text>
</g>
<!-- 27&#45;&#45;13 -->
<g id="edge23" class="edge">
<title>27--13</title>
<path fill="none" stroke="#000000" d="M648.1887,-380.3406C652.9143,-378.0092 657.9263,-375.6432 662.6764,-373.6 705.6853,-355.1005 728.7439,-370.8784 761.6764,-337.6 797.4687,-301.4317 769.5827,-270.6317 799.6764,-229.6 813.0756,-211.3307 834.3948,-196.433 850.3634,-186.9486"/>
</g>
<!-- 26 -->
<g id="node20" class="node">
<title>26</title>
<ellipse fill="none" stroke="#ccccff" cx="101.6764" cy="-319.6" rx="27" ry="18"/>
<text text-anchor="middle" x="101.6764" y="-315.4" font-family="Times,serif" font-size="14.00" fill="#000000">26</text>
</g>
<!-- 27&#45;&#45;26 -->
<g id="edge24" class="edge">
<title>27--26</title>
<path fill="none" stroke="#000000" d="M599.9198,-387.9305C509.8603,-375.5795 218.3582,-335.6021 128.3791,-323.2621"/>
</g>
<!-- 34 -->
<g id="node23" class="node">
<title>34</title>
<ellipse fill="none" stroke="#ccccff" cx="835.6764" cy="-247.6" rx="27" ry="18"/>
<text text-anchor="middle" x="835.6764" y="-243.4" font-family="Times,serif" font-size="14.00" fill="#000000">34</text>
</g>
<!-- 46&#45;&#45;34 -->
<g id="edge41" class="edge">
<title>46--34</title>
<path fill="none" stroke="#000000" d="M722.7652,-383.0427C744.0619,-374.4244 774.7558,-359.2885 794.6764,-337.6 813.9567,-316.6086 825.4722,-284.998 831.186,-265.3663"/>
</g>
<!-- 45 -->
<g id="node28" class="node">
<title>45</title>
<ellipse fill="none" stroke="#ccccff" cx="324.6764" cy="-319.6" rx="27" ry="18"/>
<text text-anchor="middle" x="324.6764" y="-315.4" font-family="Times,serif" font-size="14.00" fill="#000000">45</text>
</g>
<!-- 46&#45;&#45;45 -->
<g id="edge42" class="edge">
<title>46--45</title>
<path fill="none" stroke="#000000" d="M677.8097,-379.8279C672.959,-377.472 667.7322,-375.2253 662.6764,-373.6 550.6612,-337.5904 409.726,-324.9801 351.6146,-321.1144"/>
</g>
<!-- 51 -->
<g id="node30" class="node">
<title>51</title>
<ellipse fill="none" stroke="#ccccff" cx="452.6764" cy="-175.6" rx="27" ry="18"/>
<text text-anchor="middle" x="452.6764" y="-171.4" font-family="Times,serif" font-size="14.00" fill="#000000">51</text>
</g>
<!-- 65&#45;&#45;51 -->
<g id="edge59" class="edge">
<title>65--51</title>
<path fill="none" stroke="#000000" d="M768.6223,-380.6827C747.9003,-370.2212 716.1964,-353.6882 689.6764,-337.6 605.5181,-286.5459 510.1539,-217.8462 470.9641,-189.1143"/>
</g>
<!-- 64 -->
<g id="node36" class="node">
<title>64</title>
<ellipse fill="none" stroke="#ccccff" cx="953.6764" cy="-319.6" rx="27" ry="18"/>
<text text-anchor="middle" x="953.6764" y="-315.4" font-family="Times,serif" font-size="14.00" fill="#000000">64</text>
</g>
<!-- 65&#45;&#45;64 -->
<g id="edge60" class="edge">
<title>65--64</title>
<path fill="none" stroke="#000000" d="M812.2737,-380.5313C816.994,-378.188 821.9824,-375.769 826.6764,-373.6 862.5629,-357.0181 904.9479,-339.3786 930.5464,-328.9333"/>
</g>
<!-- 70 -->
<g id="node38" class="node">
<title>70</title>
<ellipse fill="none" stroke="#ccccff" cx="1454.6764" cy="-175.6" rx="27" ry="18"/>
<text text-anchor="middle" x="1454.6764" y="-171.4" font-family="Times,serif" font-size="14.00" fill="#000000">70</text>
</g>
<!-- 84&#45;&#45;70 -->
<g id="edge77" class="edge">
<title>84--70</title>
<path fill="none" stroke="#000000" d="M886.6167,-382.865C982.1202,-348.0191 1335.3093,-219.1529 1430.7635,-184.325"/>
</g>
<!-- 83 -->
<g id="node44" class="node">
<title>83</title>
<ellipse fill="none" stroke="#ccccff" cx="725.6764" cy="-319.6" rx="27" ry="18"/>
<text text-anchor="middle" x="725.6764" y="-315.4" font-family="Times,serif" font-size="14.00" fill="#000000">83</text>
</g>
<!-- 84&#45;&#45;83 -->
<g id="edge78" class="edge">
<title>84--83</title>
<path fill="none" stroke="#000000" d="M841.2701,-380.35C815.5325,-366.8236 772.6028,-344.2621 746.9323,-330.771"/>
</g>
<!-- 12 -->
<g id="node13" class="node">
<title>12</title>
<ellipse fill="none" stroke="#ccccff" cx="761.6764" cy="-103.6" rx="27" ry="18"/>
<text text-anchor="middle" x="761.6764" y="-99.4" font-family="Times,serif" font-size="14.00" fill="#000000">12</text>
</g>
<!-- 12&#45;&#45;3 -->
<g id="edge7" class="edge">
<title>12--3</title>
<path fill="none" stroke="#000000" d="M781.5201,-91.2875C807.3325,-75.2716 851.7984,-47.6818 874.4776,-33.61"/>
</g>
<!-- 12&#45;&#45;4 -->
<g id="edge8" class="edge">
<title>12--4</title>
<path fill="none" stroke="#000000" d="M736.4538,-96.8829C722.2028,-93.2344 704.021,-88.8236 687.6764,-85.6 542.6113,-56.9893 365.662,-34.3217 307.3446,-27.1678"/>
</g>
<!-- 13&#45;&#45;1 -->
<g id="edge9" class="edge">
<title>13--1</title>
<path fill="none" stroke="#000000" d="M896.8866,-168.8193C911.1337,-165.151 929.3158,-160.7414 945.6764,-157.6 1057.6481,-136.1002 1107.816,-189.1394 1199.6764,-121.6 1224.711,-103.1936 1236.6587,-67.6083 1241.9403,-45.0901"/>
</g>
<!-- 13&#45;&#45;12 -->
<g id="edge10" class="edge">
<title>13--12</title>
<path fill="none" stroke="#000000" d="M852.2638,-162.8936C832.2803,-149.8135 801.3126,-129.5437 781.2649,-116.4216"/>
</g>
<!-- 17 -->
<g id="node15" class="node">
<title>17</title>
<ellipse fill="none" stroke="#ccccff" cx="579.6764" cy="-103.6" rx="27" ry="18"/>
<text text-anchor="middle" x="579.6764" y="-99.4" font-family="Times,serif" font-size="14.00" fill="#000000">17</text>
</g>
<!-- 17&#45;&#45;2 -->
<g id="edge11" class="edge">
<title>17--2</title>
<path fill="none" stroke="#000000" d="M571.6868,-86.1117C565.5553,-72.6905 557.1515,-54.2954 551.152,-41.1633"/>
</g>
<!-- 17&#45;&#45;3 -->
<g id="edge12" class="edge">
<title>17--3</title>
<path fill="none" stroke="#000000" d="M600.6197,-92.0544C605.4664,-89.6867 610.6722,-87.378 615.6764,-85.6 707.8723,-52.8425 824.0664,-33.9844 869.3612,-27.4396"/>
</g>
<!-- 18 -->
<g id="node16" class="node">
<title>18</title>
<ellipse fill="none" stroke="#ccccff" cx="46.6764" cy="-175.6" rx="27" ry="18"/>
<text text-anchor="middle" x="46.6764" y="-171.4" font-family="Times,serif" font-size="14.00" fill="#000000">18</text>
</g>
<!-- 18&#45;&#45;4 -->
<g id="edge13" class="edge">
<title>18--4</title>
<path fill="none" stroke="#000000" d="M46.4814,-157.4974C47.2693,-137.2605 51.701,-104.8155 70.6764,-85.6 98.8543,-57.0655 221.0549,-35.2427 268.6259,-27.6802"/>
</g>
<!-- 18&#45;&#45;17 -->
<g id="edge14" class="edge">
<title>18--17</title>
<path fill="none" stroke="#000000" d="M73.3178,-171.5565C99.3737,-167.679 140.1969,-161.8089 175.6764,-157.6 338.8684,-138.2406 385.7665,-167.1071 543.6764,-121.6 548.9137,-120.0907 554.3015,-117.8301 559.262,-115.4162"/>
</g>
<!-- 23 -->
<g id="node17" class="node">
<title>23</title>
<ellipse fill="none" stroke="#ccccff" cx="1163.6764" cy="-103.6" rx="27" ry="18"/>
<text text-anchor="middle" x="1163.6764" y="-99.4" font-family="Times,serif" font-size="14.00" fill="#000000">23</text>
</g>
<!-- 23&#45;&#45;1 -->
<g id="edge15" class="edge">
<title>23--1</title>
<path fill="none" stroke="#000000" d="M1179.1,-88.7783C1195.0593,-73.4418 1219.6269,-49.8329 1234.0312,-35.9908"/>
</g>
<!-- 23&#45;&#45;3 -->
<g id="edge16" class="edge">
<title>23--3</title>
<path fill="none" stroke="#000000" d="M1142.6927,-92.1653C1137.8481,-89.7919 1132.6534,-87.4528 1127.6764,-85.6 1048.0294,-55.9495 948.2033,-35.7256 907.3778,-28.1365"/>
</g>
<!-- 24 -->
<g id="node18" class="node">
<title>24</title>
<ellipse fill="none" stroke="#ccccff" cx="283.6764" cy="-175.6" rx="27" ry="18"/>
<text text-anchor="middle" x="283.6764" y="-171.4" font-family="Times,serif" font-size="14.00" fill="#000000">24</text>
</g>
<!-- 24&#45;&#45;2 -->
<g id="edge17" class="edge">
<title>24--2</title>
<path fill="none" stroke="#000000" d="M269.7887,-160.0369C254.3117,-140.7498 233.6802,-107.7294 251.6764,-85.6 286.1441,-43.2162 462.1602,-29.3958 522.9759,-25.8467"/>
</g>
<!-- 24&#45;&#45;23 -->
<g id="edge18" class="edge">
<title>24--23</title>
<path fill="none" stroke="#000000" d="M304.0355,-163.5818C308.9982,-161.1762 314.401,-158.97 319.6764,-157.6 667.6025,-67.2439 779.7503,-211.9561 1127.6764,-121.6 1132.9518,-120.23 1138.3546,-118.0238 1143.3173,-115.6182"/>
</g>
<!-- 25 -->
<g id="node19" class="node">
<title>25</title>
<ellipse fill="none" stroke="#ccccff" cx="101.6764" cy="-247.6" rx="27" ry="18"/>
<text text-anchor="middle" x="101.6764" y="-243.4" font-family="Times,serif" font-size="14.00" fill="#000000">25</text>
</g>
<!-- 25&#45;&#45;4 -->
<g id="edge19" class="edge">
<title>25--4</title>
<path fill="none" stroke="#000000" d="M76.516,-240.4222C54.7625,-232.7325 24.6752,-218.1849 10.6764,-193.6 -14.5019,-149.3814 8.7019,-117.0844 48.6764,-85.6 83.4885,-58.1815 218.2668,-35.3514 268.5862,-27.6162"/>
</g>
<!-- 25&#45;&#45;24 -->
<g id="edge20" class="edge">
<title>25--24</title>
<path fill="none" stroke="#000000" d="M126.0225,-239.5098C155.2681,-229.5827 205.6458,-211.8155 247.6764,-193.6 252.4209,-191.5438 257.4305,-189.1723 262.1556,-186.8396"/>
</g>
<!-- 26&#45;&#45;18 -->
<g id="edge21" class="edge">
<title>26--18</title>
<path fill="none" stroke="#000000" d="M88.5774,-303.5153C80.8323,-293.2387 71.4412,-279.3102 65.6764,-265.6 55.7109,-241.8992 50.7652,-212.4125 48.4669,-193.7917"/>
</g>
<!-- 26&#45;&#45;25 -->
<g id="edge22" class="edge">
<title>26--25</title>
<path fill="none" stroke="#000000" d="M101.6764,-301.4314C101.6764,-290.6 101.6764,-276.8876 101.6764,-266.0133"/>
</g>
<!-- 32 -->
<g id="node21" class="node">
<title>32</title>
<ellipse fill="none" stroke="#ccccff" cx="287.6764" cy="-103.6" rx="27" ry="18"/>
<text text-anchor="middle" x="287.6764" y="-99.4" font-family="Times,serif" font-size="14.00" fill="#000000">32</text>
</g>
<!-- 32&#45;&#45;3 -->
<g id="edge25" class="edge">
<title>32--3</title>
<path fill="none" stroke="#000000" d="M312.8561,-96.655C327.0938,-92.9353 345.2764,-88.529 361.6764,-85.6 557.5134,-50.6237 798.0542,-31.3855 868.442,-26.2275"/>
</g>
<!-- 32&#45;&#45;4 -->
<g id="edge26" class="edge">
<title>32--4</title>
<path fill="none" stroke="#000000" d="M287.6764,-85.3236C287.6764,-74.6847 287.6764,-61.1284 287.6764,-49.5436"/>
</g>
<!-- 33 -->
<g id="node22" class="node">
<title>33</title>
<ellipse fill="none" stroke="#ccccff" cx="355.6764" cy="-175.6" rx="27" ry="18"/>
<text text-anchor="middle" x="355.6764" y="-171.4" font-family="Times,serif" font-size="14.00" fill="#000000">33</text>
</g>
<!-- 33&#45;&#45;2 -->
<g id="edge27" class="edge">
<title>33--2</title>
<path fill="none" stroke="#000000" d="M351.4893,-157.6797C347.9836,-137.9099 345.7902,-106.176 361.6764,-85.6 382.1878,-59.0332 483.1663,-36.6203 525.2314,-28.2813"/>
</g>
<!-- 33&#45;&#45;32 -->
<g id="edge28" class="edge">
<title>33--32</title>
<path fill="none" stroke="#000000" d="M341.2553,-160.3307C329.7155,-148.112 313.611,-131.0602 302.0767,-118.8473"/>
</g>
<!-- 34&#45;&#45;1 -->
<g id="edge29" class="edge">
<title>34--1</title>
<path fill="none" stroke="#000000" d="M861.0088,-241.1841C877.1359,-237.3127 898.5205,-232.5703 917.6764,-229.6 1004.1211,-216.1961 1243.6373,-250.9688 1309.6764,-193.6 1346.359,-161.7335 1348.3984,-129.0654 1326.6764,-85.6 1313.0779,-58.3896 1280.8675,-40.1896 1261.4105,-31.2483"/>
</g>
<!-- 34&#45;&#45;33 -->
<g id="edge30" class="edge">
<title>34--33</title>
<path fill="none" stroke="#000000" d="M810.5088,-240.5859C796.275,-236.8445 778.0921,-232.4397 761.6764,-229.6 609.7667,-203.3218 567.9068,-223.541 416.6764,-193.6 404.3285,-191.1553 390.8815,-187.3185 379.7628,-183.8142"/>
</g>
<!-- 38 -->
<g id="node24" class="node">
<title>38</title>
<ellipse fill="none" stroke="#ccccff" cx="833.6764" cy="-103.6" rx="27" ry="18"/>
<text text-anchor="middle" x="833.6764" y="-99.4" font-family="Times,serif" font-size="14.00" fill="#000000">38</text>
</g>
<!-- 38&#45;&#45;1 -->
<g id="edge31" class="edge">
<title>38--1</title>
<path fill="none" stroke="#000000" d="M859.7614,-98.6109C936.7071,-83.8941 1161.4726,-40.905 1227.3375,-28.3075"/>
</g>
<!-- 38&#45;&#45;2 -->
<g id="edge32" class="edge">
<title>38--2</title>
<path fill="none" stroke="#000000" d="M812.712,-92.113C807.8664,-89.7423 802.6664,-87.4175 797.6764,-85.6 712.4667,-54.5638 605.3679,-34.9123 562.5895,-27.7999"/>
</g>
<!-- 40 -->
<g id="node25" class="node">
<title>40</title>
<ellipse fill="none" stroke="#ccccff" cx="211.6764" cy="-175.6" rx="27" ry="18"/>
<text text-anchor="middle" x="211.6764" y="-171.4" font-family="Times,serif" font-size="14.00" fill="#000000">40</text>
</g>
<!-- 40&#45;&#45;4 -->
<g id="edge33" class="edge">
<title>40--4</title>
<path fill="none" stroke="#000000" d="M209.2589,-157.646C207.5478,-138.6929 207.2656,-108.4555 218.6764,-85.6 230.6579,-61.6015 256.6295,-42.9166 273.0692,-32.9066"/>
</g>
<!-- 40&#45;&#45;38 -->
<g id="edge34" class="edge">
<title>40--38</title>
<path fill="none" stroke="#000000" d="M232.0566,-163.6614C237.0185,-161.2525 242.4155,-159.0249 247.6764,-157.6 484.1245,-93.5579 561.2283,-185.6421 797.6764,-121.6 802.9373,-120.1751 808.3343,-117.9475 813.2962,-115.5386"/>
</g>
<!-- 41 -->
<g id="node26" class="node">
<title>41</title>
<ellipse fill="none" stroke="#ccccff" cx="324.6764" cy="-247.6" rx="27" ry="18"/>
<text text-anchor="middle" x="324.6764" y="-243.4" font-family="Times,serif" font-size="14.00" fill="#000000">41</text>
</g>
<!-- 41&#45;&#45;3 -->
<g id="edge35" class="edge">
<title>41--3</title>
<path fill="none" stroke="#000000" d="M352.0713,-246.3129C415.561,-242.7752 577.2248,-230.5705 706.6764,-193.6 782.8288,-171.8514 820.2275,-183.4628 869.6764,-121.6 886.3578,-100.7308 889.7642,-69.3504 889.88,-48.0189"/>
</g>
<!-- 41&#45;&#45;40 -->
<g id="edge36" class="edge">
<title>41--40</title>
<path fill="none" stroke="#000000" d="M304.9933,-235.0586C284.3794,-221.924 252.1843,-201.4104 231.5131,-188.2393"/>
</g>
<!-- 44 -->
<g id="node27" class="node">
<title>44</title>
<ellipse fill="none" stroke="#ccccff" cx="139.6764" cy="-103.6" rx="27" ry="18"/>
<text text-anchor="middle" x="139.6764" y="-99.4" font-family="Times,serif" font-size="14.00" fill="#000000">44</text>
</g>
<!-- 44&#45;&#45;2 -->
<g id="edge37" class="edge">
<title>44--2</title>
<path fill="none" stroke="#000000" d="M165.2377,-97.5096C180.6783,-93.897 200.7706,-89.3133 218.6764,-85.6 334.743,-61.5301 475.029,-36.731 524.9407,-28.0407"/>
</g>
<!-- 44&#45;&#45;4 -->
<g id="edge38" class="edge">
<title>44--4</title>
<path fill="none" stroke="#000000" d="M160.8812,-92.3099C191.254,-76.1384 246.3863,-46.7842 272.7951,-32.7233"/>
</g>
<!-- 45&#45;&#45;41 -->
<g id="edge39" class="edge">
<title>45--41</title>
<path fill="none" stroke="#000000" d="M324.6764,-301.4314C324.6764,-290.6 324.6764,-276.8876 324.6764,-266.0133"/>
</g>
<!-- 45&#45;&#45;44 -->
<g id="edge40" class="edge">
<title>45--44</title>
<path fill="none" stroke="#000000" d="M304.5987,-307.3047C273.156,-287.1333 212.1315,-244.1627 175.6764,-193.6 159.5356,-171.213 149.3008,-140.5733 144.0291,-121.4423"/>
</g>
<!-- 50 -->
<g id="node29" class="node">
<title>50</title>
<ellipse fill="none" stroke="#ccccff" cx="397.6764" cy="-103.6" rx="27" ry="18"/>
<text text-anchor="middle" x="397.6764" y="-99.4" font-family="Times,serif" font-size="14.00" fill="#000000">50</text>
</g>
<!-- 50&#45;&#45;3 -->
<g id="edge43" class="edge">
<title>50--3</title>
<path fill="none" stroke="#000000" d="M422.8915,-96.8446C437.1401,-93.1841 455.3221,-88.774 471.6764,-85.6 623.5782,-56.119 809.1135,-33.8511 869.0261,-27.0003"/>
</g>
<!-- 50&#45;&#45;4 -->
<g id="edge44" class="edge">
<title>50--4</title>
<path fill="none" stroke="#000000" d="M379.0164,-90.2327C356.8273,-74.3372 320.3547,-48.2096 300.8886,-34.2647"/>
</g>
<!-- 51&#45;&#45;2 -->
<g id="edge45" class="edge">
<title>51--2</title>
<path fill="none" stroke="#000000" d="M453.0891,-157.4428C454.2695,-138.3201 458.3203,-107.9423 471.6764,-85.6 485.8634,-61.8677 512.6972,-42.9725 529.2973,-32.8705"/>
</g>
<!-- 51&#45;&#45;50 -->
<g id="edge46" class="edge">
<title>51--50</title>
<path fill="none" stroke="#000000" d="M440.196,-159.2621C431.195,-147.4788 419.0971,-131.6416 410.1074,-119.8733"/>
</g>
<!-- 55 -->
<g id="node31" class="node">
<title>55</title>
<ellipse fill="none" stroke="#ccccff" cx="1019.6764" cy="-103.6" rx="27" ry="18"/>
<text text-anchor="middle" x="1019.6764" y="-99.4" font-family="Times,serif" font-size="14.00" fill="#000000">55</text>
</g>
<!-- 55&#45;&#45;1 -->
<g id="edge47" class="edge">
<title>55--1</title>
<path fill="none" stroke="#000000" d="M1041.1295,-92.1994C1045.8588,-89.8767 1050.8873,-87.55 1055.6764,-85.6 1117.7449,-60.3273 1194.5347,-38.5234 1228.3302,-29.3833"/>
</g>
<!-- 55&#45;&#45;4 -->
<g id="edge48" class="edge">
<title>55--4</title>
<path fill="none" stroke="#000000" d="M993.1424,-100.2399C963.1803,-96.4867 912.9592,-90.3193 869.6764,-85.6 706.748,-67.8354 665.6451,-66.9909 502.6764,-49.6 430.5682,-41.9051 344.9851,-31.717 307.2292,-27.1685"/>
</g>
<!-- 56 -->
<g id="node32" class="node">
<title>56</title>
<ellipse fill="none" stroke="#ccccff" cx="1053.6764" cy="-175.6" rx="27" ry="18"/>
<text text-anchor="middle" x="1053.6764" y="-171.4" font-family="Times,serif" font-size="14.00" fill="#000000">56</text>
</g>
<!-- 56&#45;&#45;3 -->
<g id="edge49" class="edge">
<title>56--3</title>
<path fill="none" stroke="#000000" d="M1034.9957,-162.2799C1020.5674,-151.7358 1000.3209,-136.3739 983.6764,-121.6 951.4498,-92.9952 916.752,-55.8214 899.5839,-36.9467"/>
</g>
<!-- 56&#45;&#45;55 -->
<g id="edge50" class="edge">
<title>56--55</title>
<path fill="none" stroke="#000000" d="M1045.4459,-158.1708C1040.1003,-146.8506 1033.1615,-132.1568 1027.8311,-120.8687"/>
</g>
<!-- 61 -->
<g id="node33" class="node">
<title>61</title>
<ellipse fill="none" stroke="#ccccff" cx="507.6764" cy="-103.6" rx="27" ry="18"/>
<text text-anchor="middle" x="507.6764" y="-99.4" font-family="Times,serif" font-size="14.00" fill="#000000">61</text>
</g>
<!-- 61&#45;&#45;2 -->
<g id="edge51" class="edge">
<title>61--2</title>
<path fill="none" stroke="#000000" d="M515.666,-86.1117C521.7975,-72.6905 530.2013,-54.2954 536.2008,-41.1633"/>
</g>
<!-- 61&#45;&#45;4 -->
<g id="edge52" class="edge">
<title>61--4</title>
<path fill="none" stroke="#000000" d="M483.7137,-95.017C438.7221,-78.9018 342.6762,-44.4999 304.1587,-30.7037"/>
</g>
<!-- 62 -->
<g id="node34" class="node">
<title>62</title>
<ellipse fill="none" stroke="#ccccff" cx="981.6764" cy="-175.6" rx="27" ry="18"/>
<text text-anchor="middle" x="981.6764" y="-171.4" font-family="Times,serif" font-size="14.00" fill="#000000">62</text>
</g>
<!-- 62&#45;&#45;1 -->
<g id="edge53" class="edge">
<title>62--1</title>
<path fill="none" stroke="#000000" d="M1002.5012,-163.6935C1007.354,-161.3445 1012.5923,-159.1347 1017.6764,-157.6 1080.2672,-138.7066 1266.3663,-170.5776 1309.6764,-121.6 1335.5672,-92.3212 1285.4633,-51.8278 1259.6757,-33.9311"/>
</g>
<!-- 62&#45;&#45;61 -->
<g id="edge54" class="edge">
<title>62--61</title>
<path fill="none" stroke="#000000" d="M956.5147,-168.5517C942.2827,-164.7996 924.0997,-160.3954 907.6764,-157.6 747.4143,-130.3217 699.8622,-166.7004 543.6764,-121.6 538.4399,-120.0879 533.0524,-117.8262 528.092,-115.4121"/>
</g>
<!-- 63 -->
<g id="node35" class="node">
<title>63</title>
<ellipse fill="none" stroke="#ccccff" cx="953.6764" cy="-247.6" rx="27" ry="18"/>
<text text-anchor="middle" x="953.6764" y="-243.4" font-family="Times,serif" font-size="14.00" fill="#000000">63</text>
</g>
<!-- 63&#45;&#45;3 -->
<g id="edge55" class="edge">
<title>63--3</title>
<path fill="none" stroke="#000000" d="M948.467,-229.744C936.3566,-188.2331 906.4042,-85.5654 894.093,-43.3664"/>
</g>
<!-- 63&#45;&#45;62 -->
<g id="edge56" class="edge">
<title>63--62</title>
<path fill="none" stroke="#000000" d="M960.4544,-230.1708C964.8243,-218.9339 970.487,-204.3727 974.8637,-193.1182"/>
</g>
<!-- 64&#45;&#45;56 -->
<g id="edge57" class="edge">
<title>64--56</title>
<path fill="none" stroke="#000000" d="M965.1477,-303.0814C984.3347,-275.452 1022.7283,-220.1653 1042.0309,-192.3695"/>
</g>
<!-- 64&#45;&#45;63 -->
<g id="edge58" class="edge">
<title>64--63</title>
<path fill="none" stroke="#000000" d="M953.6764,-301.4314C953.6764,-290.6 953.6764,-276.8876 953.6764,-266.0133"/>
</g>
<!-- 69 -->
<g id="node37" class="node">
<title>69</title>
<ellipse fill="none" stroke="#ccccff" cx="1091.6764" cy="-103.6" rx="27" ry="18"/>
<text text-anchor="middle" x="1091.6764" y="-99.4" font-family="Times,serif" font-size="14.00" fill="#000000">69</text>
</g>
<!-- 69&#45;&#45;2 -->
<g id="edge61" class="edge">
<title>69--2</title>
<path fill="none" stroke="#000000" d="M1070.8566,-91.6766C1066.0036,-89.3285 1060.7639,-87.1233 1055.6764,-85.6 960.706,-57.1642 646.7801,-32.4189 563.8921,-26.2657"/>
</g>
<!-- 69&#45;&#45;3 -->
<g id="edge62" class="edge">
<title>69--3</title>
<path fill="none" stroke="#000000" d="M1070.1635,-92.342C1065.438,-90.0105 1060.4261,-87.6441 1055.6764,-85.6 1001.8273,-62.4255 935.9198,-40.1594 905.5154,-30.2188"/>
</g>
<!-- 70&#45;&#45;1 -->
<g id="edge63" class="edge">
<title>70--1</title>
<path fill="none" stroke="#000000" d="M1452.0057,-157.5807C1448.1046,-137.4202 1438.967,-105.0452 1418.6764,-85.6 1375.0051,-43.7483 1300.8627,-30.529 1265.5357,-26.4946"/>
</g>
<!-- 70&#45;&#45;69 -->
<g id="edge64" class="edge">
<title>70--69</title>
<path fill="none" stroke="#000000" d="M1428.0876,-172.2545C1360.577,-163.5934 1183.914,-139.8413 1127.6764,-121.6 1122.6248,-119.9615 1117.3998,-117.7094 1112.5495,-115.3525"/>
</g>
<!-- 74 -->
<g id="node39" class="node">
<title>74</title>
<ellipse fill="none" stroke="#ccccff" cx="1273.6764" cy="-103.6" rx="27" ry="18"/>
<text text-anchor="middle" x="1273.6764" y="-99.4" font-family="Times,serif" font-size="14.00" fill="#000000">74</text>
</g>
<!-- 74&#45;&#45;1 -->
<g id="edge65" class="edge">
<title>74--1</title>
<path fill="none" stroke="#000000" d="M1267.3228,-85.7191C1262.7081,-72.7321 1256.4947,-55.2457 1251.9084,-42.3387"/>
</g>
<!-- 74&#45;&#45;2 -->
<g id="edge66" class="edge">
<title>74--2</title>
<path fill="none" stroke="#000000" d="M1248.5213,-96.5125C1234.2914,-92.7482 1216.1082,-88.3448 1199.6764,-85.6 1135.5135,-74.8821 667.3222,-35.1975 563.8717,-26.4944"/>
</g>
<!-- 76 -->
<g id="node40" class="node">
<title>76</title>
<ellipse fill="none" stroke="#ccccff" cx="1273.6764" cy="-175.6" rx="27" ry="18"/>
<text text-anchor="middle" x="1273.6764" y="-171.4" font-family="Times,serif" font-size="14.00" fill="#000000">76</text>
</g>
<!-- 76&#45;&#45;3 -->
<g id="edge67" class="edge">
<title>76--3</title>
<path fill="none" stroke="#000000" d="M1288.5854,-160.2933C1305.5941,-140.9724 1328.7348,-107.6085 1309.6764,-85.6 1282.9971,-54.7909 989.2865,-31.9065 908.9071,-26.1884"/>
</g>
<!-- 76&#45;&#45;74 -->
<g id="edge68" class="edge">
<title>76--74</title>
<path fill="none" stroke="#000000" d="M1273.6764,-157.4314C1273.6764,-146.6 1273.6764,-132.8876 1273.6764,-122.0133"/>
</g>
<!-- 77 -->
<g id="node41" class="node">
<title>77</title>
<ellipse fill="none" stroke="#ccccff" cx="725.6764" cy="-247.6" rx="27" ry="18"/>
<text text-anchor="middle" x="725.6764" y="-243.4" font-family="Times,serif" font-size="14.00" fill="#000000">77</text>
</g>
<!-- 77&#45;&#45;4 -->
<g id="edge69" class="edge">
<title>77--4</title>
<path fill="none" stroke="#000000" d="M698.5819,-246.0136C594.4381,-239.7701 223.329,-216.1291 175.6764,-193.6 123.5225,-168.9428 69.8841,-132.3555 103.6764,-85.6 123.5314,-58.1284 226.1258,-36.235 268.9088,-28.1583"/>
</g>
<!-- 77&#45;&#45;76 -->
<g id="edge70" class="edge">
<title>77--76</title>
<path fill="none" stroke="#000000" d="M750.8545,-240.646C765.0916,-236.9234 783.2743,-232.5173 799.6764,-229.6 887.0306,-214.0629 1160.1704,-186.7093 1246.9376,-178.2005"/>
</g>
<!-- 81 -->
<g id="node42" class="node">
<title>81</title>
<ellipse fill="none" stroke="#ccccff" cx="651.6764" cy="-103.6" rx="27" ry="18"/>
<text text-anchor="middle" x="651.6764" y="-99.4" font-family="Times,serif" font-size="14.00" fill="#000000">81</text>
</g>
<!-- 81&#45;&#45;3 -->
<g id="edge71" class="edge">
<title>81--3</title>
<path fill="none" stroke="#000000" d="M676.1469,-95.4638C724.4002,-79.4201 830.7081,-44.0739 871.9048,-30.3764"/>
</g>
<!-- 81&#45;&#45;4 -->
<g id="edge72" class="edge">
<title>81--4</title>
<path fill="none" stroke="#000000" d="M630.7791,-91.9209C625.9301,-89.5602 620.7116,-87.288 615.6764,-85.6 502.8343,-47.7707 359.7992,-31.4967 307.7585,-26.5482"/>
</g>
<!-- 82 -->
<g id="node43" class="node">
<title>82</title>
<ellipse fill="none" stroke="#ccccff" cx="670.6764" cy="-175.6" rx="27" ry="18"/>
<text text-anchor="middle" x="670.6764" y="-171.4" font-family="Times,serif" font-size="14.00" fill="#000000">82</text>
</g>
<!-- 82&#45;&#45;2 -->
<g id="edge73" class="edge">
<title>82--2</title>
<path fill="none" stroke="#000000" d="M680.734,-158.5542C690.6477,-139.287 702.3543,-107.73 687.6764,-85.6 659.7022,-43.4232 596.0615,-30.4306 563.5683,-26.4847"/>
</g>
<!-- 82&#45;&#45;81 -->
<g id="edge74" class="edge">
<title>82--81</title>
<path fill="none" stroke="#000000" d="M665.9798,-157.8022C663.0567,-146.7252 659.3102,-132.528 656.3848,-121.4425"/>
</g>
<!-- 83&#45;&#45;77 -->
<g id="edge75" class="edge">
<title>83--77</title>
<path fill="none" stroke="#000000" d="M725.6764,-301.4314C725.6764,-290.6 725.6764,-276.8876 725.6764,-266.0133"/>
</g>
<!-- 83&#45;&#45;82 -->
<g id="edge76" class="edge">
<title>83--82</title>
<path fill="none" stroke="#000000" d="M712.5774,-303.5153C704.8323,-293.2387 695.4412,-279.3102 689.6764,-265.6 679.7109,-241.8992 674.7652,-212.4125 672.4669,-193.7917"/>
</g>
</g>
</svg>