<?xml version="1.0" encoding="UTF-8" standalone="no"?><!DOCTYPE svg PUBLIC "-//W3C//DTD SVG 1.1//EN" "http://www.w3.org/Graphics/SVG/1.1/DTD/svg11.dtd"><!-- Generated by graphviz version 2.40.1 (20161225.0304)
 --><!-- Pages: 1 --><svg xmlns="http://www.w3.org/2000/svg" xmlns:xlink="http://www.w3.org/1999/xlink" width="376pt" height="287pt" viewBox="0.00 0.00 376.46 287.20">
<g id="graph0" class="graph" transform="scale(1 1) rotate(0) translate(4 283.2)">
<polygon fill="#ffffff" stroke="transparent" points="-4,4 -4,-283.2 372.4599,-283.2 372.4599,4 -4,4"/>
<!-- 5 -->
<g id="node1" class="node">
<title>5</title>
<polygon fill="none" stroke="#00ffff" points="115.73,-279.0016 83.7684,-242.0992 147.6916,-242.0992 115.73,-279.0016"/>
<text text-anchor="middle" x="115.73" y="-250.2" font-family="Times,serif" font-size="14.00" fill="#000000">5</text>
</g>
<!-- 46 -->
<g id="node2" class="node">
<title>46</title>
<ellipse fill="none" stroke="#ccccff" cx="115.73" cy="-175.6" rx="27" ry="18"/>
<text text-anchor="middle" x="115.73" y="-171.4" font-family="Times,serif" font-size="14.00" fill="#000000">46</text>
</g>
<!-- 5&#45;&#45;46 -->
<g id="edge1" class="edge">
<title>5--46</title>
<path fill="none" stroke="#000000" d="M115.73,-242.0875C115.73,-229.1017 115.73,-208.5069 115.73,-193.6783"/>
</g>
<!-- 1 -->
<g id="node5" class="node">
<title>1</title>
<polygon fill="none" stroke="#00ff00" points="255.73,-49.4016 223.7684,-12.4992 287.6916,-12.4992 255.73,-49.4016"/>
<text text-anchor="middle" x="255.73" y="-20.6" font-family="Times,serif" font-size="14.00" fill="#000000">1</text>
</g>
<!-- 46&#45;&#45;1 -->
<g id="edge3" class="edge">
<title>46--1</title>
<path fill="none" stroke="#000000" d="M130.1851,-160.0297C158.1302,-129.9288 219.0376,-64.3229 244.3474,-37.0607"/>
</g>
<!-- 2 -->
<g id="node6" class="node">
<title>2</title>
<polygon fill="none" stroke="#00ff00" points="336.73,-49.4016 304.7684,-12.4992 368.6916,-12.4992 336.73,-49.4016"/>
<text text-anchor="middle" x="336.73" y="-20.6" font-family="Times,serif" font-size="14.00" fill="#000000">2</text>
</g>
<!-- 46&#45;&#45;2 -->
<g id="edge4" class="edge">
<title>46--2</title>
<path fill="none" stroke="#000000" d="M141.5165,-169.6489C190.4074,-158.1626 292.7895,-133.0611 304.73,-121.6 324.9058,-102.2342 332.3666,-69.9 335.122,-47.982"/>
</g>
<!-- 3 -->
<g id="node7" class="node">
<title>3</title>
<polygon fill="none" stroke="#00ff00" points="31.73,-49.4016 -.2316,-12.4992 63.6916,-12.4992 31.73,-49.4016"/>
<text text-anchor="middle" x="31.73" y="-20.6" font-family="Times,serif" font-size="14.00" fill="#000000">3</text>
</g>
<!-- 46&#45;&#45;3 -->
<g id="edge5" class="edge">
<title>46--3</title>
<path fill="none" stroke="#000000" d="M89.7153,-170.5969C64.0832,-164.1331 26.2892,-150.1304 8.73,-121.6 -7.4762,-95.2681 10.2258,-58.4335 22.3408,-38.6575"/>
</g>
<!-- 4 -->
<g id="node8" class="node">
<title>4</title>
<polygon fill="none" stroke="#00ff00" points="112.73,-49.4016 80.7684,-12.4992 144.6916,-12.4992 112.73,-49.4016"/>
<text text-anchor="middle" x="112.73" y="-20.6" font-family="Times,serif" font-size="14.00" fill="#000000">4</text>
</g>
<!-- 46&#45;&#45;4 -->
<g id="edge6" class="edge">
<title>46--4</title>
<path fill="none" stroke="#000000" d="M115.3681,-157.41C114.8289,-130.3056 113.8137,-79.2741 113.212,-49.0326"/>
</g>
<!-- 74 -->
<g id="node9" class="node">
<title>74</title>
<ellipse fill="none" stroke="#ccccff" cx="268.73" cy="-103.6" rx="27" ry="18"/>
<text text-anchor="middle" x="268.73" y="-99.4" font-family="Times,serif" font-size="14.00" fill="#000000">74</text>
</g>
<!-- 46&#45;&#45;74 -->
<g id="edge7" class="edge">
<title>46--74</title>
<path fill="none" stroke="#000000" d="M137.9775,-165.1306C166.9852,-151.4799 217.4346,-127.739 246.4556,-114.0821"/>
</g>
<!-- 81 -->
<g id="node10" class="node">
<title>81</title>
<ellipse fill="none" stroke="#ccccff" cx="44.73" cy="-103.6" rx="27" ry="18"/>
<text text-anchor="middle" x="44.73" y="-99.4" font-family="Times,serif" font-size="14.00" fill="#000000">81</text>
</g>
<!-- 46&#45;&#45;81 -->
<g id="edge8" class="edge">
<title>46--81</title>
<path fill="none" stroke="#000000" d="M100.6727,-160.3307C88.6237,-148.112 71.8087,-131.0602 59.7655,-118.8473"/>
</g>
<!-- 6 -->
<g id="node3" class="node">
<title>6</title>
<polygon fill="none" stroke="#00ffff" points="240.73,-279.0016 208.7684,-242.0992 272.6916,-242.0992 240.73,-279.0016"/>
<text text-anchor="middle" x="240.73" y="-250.2" font-family="Times,serif" font-size="14.00" fill="#000000">6</text>
</g>
<!-- 84 -->
<g id="node4" class="node">
<title>84</title>
<ellipse fill="none" stroke="#ccccff" cx="240.73" cy="-175.6" rx="27" ry="18"/>
<text text-anchor="middle" x="240.73" y="-171.4" font-family="Times,serif" font-size="14.00" fill="#000000">84</text>
</g>
<!-- 6&#45;&#45;84 -->
<g id="edge2" class="edge">
<title>6--84</title>
<path fill="none" stroke="#000000" d="M240.73,-242.0875C240.73,-229.1017 240.73,-208.5069 240.73,-193.6783"/>
</g>
<!-- 84&#45;&#45;1 -->
<g id="edge13" class="edge">
<title>84--1</title>
<path fill="none" stroke="#000000" d="M262.0102,-164.3444C277.0266,-155.0933 295.9698,-140.4532 304.73,-121.6 319.4931,-89.8274 286.9368,-53.1243 268.0288,-35.4279"/>
</g>
<!-- 84&#45;&#45;2 -->
<g id="edge14" class="edge">
<title>84--2</title>
<path fill="none" stroke="#000000" d="M263.9352,-165.9113C282.0868,-157.0859 306.4095,-142.2668 319.73,-121.6 333.873,-99.6569 337.183,-69.3664 337.557,-48.5442"/>
</g>
<!-- 84&#45;&#45;3 -->
<g id="edge15" class="edge">
<title>84--3</title>
<path fill="none" stroke="#000000" d="M221.4235,-162.7209C205.3354,-151.9132 181.879,-135.9792 161.73,-121.6 118.4401,-90.7067 68.2127,-52.6675 44.887,-34.8725"/>
</g>
<!-- 84&#45;&#45;4 -->
<g id="edge16" class="edge">
<title>84--4</title>
<path fill="none" stroke="#000000" d="M227.2736,-159.7468C201.7274,-129.6501 146.683,-64.801 123.4376,-37.4149"/>
</g>
<!-- 84&#45;&#45;74 -->
<g id="edge17" class="edge">
<title>84--74</title>
<path fill="none" stroke="#000000" d="M247.508,-158.1708C251.8779,-146.9339 257.5406,-132.3727 261.9173,-121.1182"/>
</g>
<!-- 84&#45;&#45;81 -->
<g id="edge18" class="edge">
<title>84--81</title>
<path fill="none" stroke="#000000" d="M216.6965,-166.7714C178.9766,-152.9151 106.3047,-126.2193 68.6531,-112.3881"/>
</g>
<!-- 74&#45;&#45;1 -->
<g id="edge9" class="edge">
<title>74--1</title>
<path fill="none" stroke="#000000" d="M265.7148,-85.3236C263.7497,-73.4117 261.1811,-57.8424 259.1413,-45.478"/>
</g>
<!-- 74&#45;&#45;2 -->
<g id="edge10" class="edge">
<title>74--2</title>
<path fill="none" stroke="#000000" d="M282.4908,-87.6536C295.2199,-72.9029 313.8996,-51.2564 325.6817,-37.603"/>
</g>
<!-- 81&#45;&#45;3 -->
<g id="edge11" class="edge">
<title>81--3</title>
<path fill="none" stroke="#000000" d="M41.7148,-85.3236C39.7497,-73.4117 37.1811,-57.8424 35.1413,-45.478"/>
</g>
<!-- 81&#45;&#45;4 -->
<g id="edge12" class="edge">
<title>81--4</title>
<path fill="none" stroke="#000000" d="M58.4908,-87.6536C71.2199,-72.9029 89.8996,-51.2564 101.6817,-37.603"/>
</g>
</g>
</svg>